<mxfile host="app.diagrams.net" agent="Mozilla/5.0 (Windows NT 10.0; Win64; x64) AppleWebKit/537.36 (KHTML, like Gecko) Chrome/131.0.0.0 Safari/537.36" version="26.0.2">
  <diagram name="第 1 页" id="mL5roeD8wx7HPHfgIToW">
    <mxGraphModel grid="1" page="1" gridSize="10" guides="1" tooltips="1" connect="1" arrows="1" fold="1" pageScale="1" pageWidth="827" pageHeight="1169" math="0" shadow="0">
      <root>
        <mxCell id="0" />
        <mxCell id="1" parent="0" />
        <mxCell id="P34mL9KehxrlS1Zlg1Dh-16" style="edgeStyle=orthogonalEdgeStyle;rounded=0;orthogonalLoop=1;jettySize=auto;html=1;entryX=0;entryY=0.5;entryDx=0;entryDy=0;" edge="1" parent="1" source="P34mL9KehxrlS1Zlg1Dh-1" target="P34mL9KehxrlS1Zlg1Dh-3">
          <mxGeometry relative="1" as="geometry" />
        </mxCell>
        <mxCell id="P34mL9KehxrlS1Zlg1Dh-1" value="客戶" style="shape=umlActor;verticalLabelPosition=bottom;verticalAlign=top;html=1;outlineConnect=0;" vertex="1" parent="1">
          <mxGeometry x="80" y="370" width="30" height="60" as="geometry" />
        </mxCell>
        <mxCell id="P34mL9KehxrlS1Zlg1Dh-3" value="存款" style="ellipse;whiteSpace=wrap;html=1;" vertex="1" parent="1">
          <mxGeometry x="250" y="40" width="210" height="80" as="geometry" />
        </mxCell>
        <mxCell id="P34mL9KehxrlS1Zlg1Dh-4" value="改變PIN" style="ellipse;whiteSpace=wrap;html=1;" vertex="1" parent="1">
          <mxGeometry x="250" y="470" width="210" height="80" as="geometry" />
        </mxCell>
        <mxCell id="P34mL9KehxrlS1Zlg1Dh-5" value="查詢餘額" style="ellipse;whiteSpace=wrap;html=1;" vertex="1" parent="1">
          <mxGeometry x="290" y="380" width="210" height="80" as="geometry" />
        </mxCell>
        <mxCell id="P34mL9KehxrlS1Zlg1Dh-6" value="取款" style="ellipse;whiteSpace=wrap;html=1;" vertex="1" parent="1">
          <mxGeometry x="280" y="120" width="210" height="80" as="geometry" />
        </mxCell>
        <mxCell id="P34mL9KehxrlS1Zlg1Dh-23" style="edgeStyle=orthogonalEdgeStyle;rounded=0;orthogonalLoop=1;jettySize=auto;html=1;" edge="1" parent="1" source="P34mL9KehxrlS1Zlg1Dh-7" target="P34mL9KehxrlS1Zlg1Dh-9">
          <mxGeometry relative="1" as="geometry" />
        </mxCell>
        <mxCell id="P34mL9KehxrlS1Zlg1Dh-7" value="付款" style="ellipse;whiteSpace=wrap;html=1;" vertex="1" parent="1">
          <mxGeometry x="290" y="290" width="210" height="80" as="geometry" />
        </mxCell>
        <mxCell id="P34mL9KehxrlS1Zlg1Dh-8" value="轉帳&lt;div&gt;&lt;br&gt;&lt;/div&gt;" style="ellipse;whiteSpace=wrap;html=1;" vertex="1" parent="1">
          <mxGeometry x="290" y="200" width="210" height="80" as="geometry" />
        </mxCell>
        <mxCell id="P34mL9KehxrlS1Zlg1Dh-9" value="信用系統" style="shape=umlActor;verticalLabelPosition=bottom;verticalAlign=top;html=1;outlineConnect=0;" vertex="1" parent="1">
          <mxGeometry x="590" y="300" width="30" height="60" as="geometry" />
        </mxCell>
        <mxCell id="P34mL9KehxrlS1Zlg1Dh-24" style="edgeStyle=orthogonalEdgeStyle;rounded=0;orthogonalLoop=1;jettySize=auto;html=1;entryX=1;entryY=0.5;entryDx=0;entryDy=0;" edge="1" parent="1" source="P34mL9KehxrlS1Zlg1Dh-10" target="P34mL9KehxrlS1Zlg1Dh-4">
          <mxGeometry relative="1" as="geometry" />
        </mxCell>
        <mxCell id="P34mL9KehxrlS1Zlg1Dh-10" value="銀行官員" style="shape=umlActor;verticalLabelPosition=bottom;verticalAlign=top;html=1;outlineConnect=0;" vertex="1" parent="1">
          <mxGeometry x="630" y="480" width="30" height="60" as="geometry" />
        </mxCell>
        <mxCell id="P34mL9KehxrlS1Zlg1Dh-17" style="edgeStyle=orthogonalEdgeStyle;rounded=0;orthogonalLoop=1;jettySize=auto;html=1;entryX=0;entryY=0.5;entryDx=0;entryDy=0;" edge="1" parent="1" target="P34mL9KehxrlS1Zlg1Dh-6">
          <mxGeometry relative="1" as="geometry">
            <mxPoint x="109.5" y="400" as="sourcePoint" />
            <mxPoint x="209.5" y="90" as="targetPoint" />
          </mxGeometry>
        </mxCell>
        <mxCell id="P34mL9KehxrlS1Zlg1Dh-18" style="edgeStyle=orthogonalEdgeStyle;rounded=0;orthogonalLoop=1;jettySize=auto;html=1;entryX=0;entryY=0.5;entryDx=0;entryDy=0;" edge="1" parent="1" target="P34mL9KehxrlS1Zlg1Dh-8">
          <mxGeometry relative="1" as="geometry">
            <mxPoint x="109.5" y="400" as="sourcePoint" />
            <mxPoint x="209.5" y="90" as="targetPoint" />
          </mxGeometry>
        </mxCell>
        <mxCell id="P34mL9KehxrlS1Zlg1Dh-19" style="edgeStyle=orthogonalEdgeStyle;rounded=0;orthogonalLoop=1;jettySize=auto;html=1;entryX=0;entryY=0.5;entryDx=0;entryDy=0;" edge="1" parent="1" target="P34mL9KehxrlS1Zlg1Dh-7">
          <mxGeometry relative="1" as="geometry">
            <mxPoint x="109.5" y="400" as="sourcePoint" />
            <mxPoint x="209.5" y="90" as="targetPoint" />
          </mxGeometry>
        </mxCell>
        <mxCell id="P34mL9KehxrlS1Zlg1Dh-20" style="edgeStyle=orthogonalEdgeStyle;rounded=0;orthogonalLoop=1;jettySize=auto;html=1;entryX=0;entryY=0.5;entryDx=0;entryDy=0;" edge="1" parent="1" target="P34mL9KehxrlS1Zlg1Dh-5">
          <mxGeometry relative="1" as="geometry">
            <mxPoint x="110" y="399.5" as="sourcePoint" />
            <mxPoint x="210" y="89.5" as="targetPoint" />
          </mxGeometry>
        </mxCell>
        <mxCell id="P34mL9KehxrlS1Zlg1Dh-22" style="edgeStyle=orthogonalEdgeStyle;rounded=0;orthogonalLoop=1;jettySize=auto;html=1;entryX=0;entryY=0.5;entryDx=0;entryDy=0;" edge="1" parent="1" target="P34mL9KehxrlS1Zlg1Dh-4">
          <mxGeometry relative="1" as="geometry">
            <mxPoint x="107.9" y="400" as="sourcePoint" />
            <mxPoint x="220.00000000000003" y="509.8599999999999" as="targetPoint" />
          </mxGeometry>
        </mxCell>
      </root>
    </mxGraphModel>
  </diagram>
</mxfile>
